<svg xmlns="http://www.w3.org/2000/svg" xmlns:xlink="http://www.w3.org/1999/xlink" width="1100" zoomAndPan="magnify" viewBox="0 0 824.88 292.499991" height="390" preserveAspectRatio="xMidYMid meet" version="1.0"><defs><clipPath id="df7bede8e9"><path d="M 0.644531 0 L 824.117188 0 L 824.117188 292 L 0.644531 292 Z M 0.644531 0 " clip-rule="nonzero"/></clipPath><linearGradient x1="550" gradientTransform="matrix(0.74872, 0, 0, 0.74872, 0.643937, 0)" y1="0" x2="550" gradientUnits="userSpaceOnUse" y2="389.999984" id="8559243532"><stop stop-opacity="1" stop-color="rgb(11.799622%, 22.698975%, 54.098511%)" offset="0"/><stop stop-opacity="1" stop-color="rgb(11.903381%, 22.824097%, 54.25415%)" offset="0.015625"/><stop stop-opacity="1" stop-color="rgb(12.110901%, 23.075867%, 54.566956%)" offset="0.03125"/><stop stop-opacity="1" stop-color="rgb(12.31842%, 23.327637%, 54.879761%)" offset="0.046875"/><stop stop-opacity="1" stop-color="rgb(12.52594%, 23.579407%, 55.192566%)" offset="0.0625"/><stop stop-opacity="1" stop-color="rgb(12.734985%, 23.831177%, 55.505371%)" offset="0.078125"/><stop stop-opacity="1" stop-color="rgb(12.942505%, 24.081421%, 55.81665%)" offset="0.09375"/><stop stop-opacity="1" stop-color="rgb(13.150024%, 24.333191%, 56.129456%)" offset="0.109375"/><stop stop-opacity="1" stop-color="rgb(13.357544%, 24.584961%, 56.442261%)" offset="0.125"/><stop stop-opacity="1" stop-color="rgb(13.565063%, 24.836731%, 56.755066%)" offset="0.140625"/><stop stop-opacity="1" stop-color="rgb(13.772583%, 25.088501%, 57.067871%)" offset="0.15625"/><stop stop-opacity="1" stop-color="rgb(13.981628%, 25.340271%, 57.37915%)" offset="0.171875"/><stop stop-opacity="1" stop-color="rgb(14.189148%, 25.592041%, 57.691956%)" offset="0.1875"/><stop stop-opacity="1" stop-color="rgb(14.396667%, 25.843811%, 58.004761%)" offset="0.203125"/><stop stop-opacity="1" stop-color="rgb(14.604187%, 26.094055%, 58.317566%)" offset="0.21875"/><stop stop-opacity="1" stop-color="rgb(14.811707%, 26.345825%, 58.630371%)" offset="0.234375"/><stop stop-opacity="1" stop-color="rgb(15.020752%, 26.597595%, 58.94165%)" offset="0.25"/><stop stop-opacity="1" stop-color="rgb(15.228271%, 26.849365%, 59.254456%)" offset="0.265625"/><stop stop-opacity="1" stop-color="rgb(15.435791%, 27.101135%, 59.567261%)" offset="0.28125"/><stop stop-opacity="1" stop-color="rgb(15.643311%, 27.352905%, 59.880066%)" offset="0.296875"/><stop stop-opacity="1" stop-color="rgb(15.85083%, 27.604675%, 60.192871%)" offset="0.3125"/><stop stop-opacity="1" stop-color="rgb(16.059875%, 27.854919%, 60.50415%)" offset="0.328125"/><stop stop-opacity="1" stop-color="rgb(16.267395%, 28.106689%, 60.816956%)" offset="0.34375"/><stop stop-opacity="1" stop-color="rgb(16.474915%, 28.358459%, 61.129761%)" offset="0.359375"/><stop stop-opacity="1" stop-color="rgb(16.682434%, 28.610229%, 61.442566%)" offset="0.375"/><stop stop-opacity="1" stop-color="rgb(16.889954%, 28.862%, 61.755371%)" offset="0.390625"/><stop stop-opacity="1" stop-color="rgb(17.098999%, 29.11377%, 62.06665%)" offset="0.40625"/><stop stop-opacity="1" stop-color="rgb(17.306519%, 29.36554%, 62.379456%)" offset="0.421875"/><stop stop-opacity="1" stop-color="rgb(17.514038%, 29.615784%, 62.692261%)" offset="0.4375"/><stop stop-opacity="1" stop-color="rgb(17.721558%, 29.867554%, 63.005066%)" offset="0.453125"/><stop stop-opacity="1" stop-color="rgb(17.929077%, 30.119324%, 63.317871%)" offset="0.46875"/><stop stop-opacity="1" stop-color="rgb(18.138123%, 30.371094%, 63.62915%)" offset="0.484375"/><stop stop-opacity="1" stop-color="rgb(18.345642%, 30.622864%, 63.941956%)" offset="0.5"/><stop stop-opacity="1" stop-color="rgb(18.553162%, 30.874634%, 64.254761%)" offset="0.515625"/><stop stop-opacity="1" stop-color="rgb(18.760681%, 31.126404%, 64.567566%)" offset="0.53125"/><stop stop-opacity="1" stop-color="rgb(18.968201%, 31.378174%, 64.880371%)" offset="0.546875"/><stop stop-opacity="1" stop-color="rgb(19.17572%, 31.628418%, 65.19165%)" offset="0.5625"/><stop stop-opacity="1" stop-color="rgb(19.384766%, 31.880188%, 65.504456%)" offset="0.578125"/><stop stop-opacity="1" stop-color="rgb(19.592285%, 32.131958%, 65.817261%)" offset="0.59375"/><stop stop-opacity="1" stop-color="rgb(19.799805%, 32.383728%, 66.130066%)" offset="0.609375"/><stop stop-opacity="1" stop-color="rgb(20.007324%, 32.635498%, 66.442871%)" offset="0.625"/><stop stop-opacity="1" stop-color="rgb(20.214844%, 32.887268%, 66.75415%)" offset="0.640625"/><stop stop-opacity="1" stop-color="rgb(20.423889%, 33.139038%, 67.066956%)" offset="0.65625"/><stop stop-opacity="1" stop-color="rgb(20.631409%, 33.389282%, 67.379761%)" offset="0.671875"/><stop stop-opacity="1" stop-color="rgb(20.838928%, 33.641052%, 67.692566%)" offset="0.6875"/><stop stop-opacity="1" stop-color="rgb(21.046448%, 33.892822%, 68.005371%)" offset="0.703125"/><stop stop-opacity="1" stop-color="rgb(21.253967%, 34.144592%, 68.31665%)" offset="0.71875"/><stop stop-opacity="1" stop-color="rgb(21.463013%, 34.396362%, 68.629456%)" offset="0.734375"/><stop stop-opacity="1" stop-color="rgb(21.670532%, 34.648132%, 68.942261%)" offset="0.75"/><stop stop-opacity="1" stop-color="rgb(21.878052%, 34.899902%, 69.255066%)" offset="0.765625"/><stop stop-opacity="1" stop-color="rgb(22.085571%, 35.151672%, 69.567871%)" offset="0.78125"/><stop stop-opacity="1" stop-color="rgb(22.293091%, 35.401917%, 69.87915%)" offset="0.796875"/><stop stop-opacity="1" stop-color="rgb(22.502136%, 35.653687%, 70.191956%)" offset="0.8125"/><stop stop-opacity="1" stop-color="rgb(22.709656%, 35.905457%, 70.504761%)" offset="0.828125"/><stop stop-opacity="1" stop-color="rgb(22.917175%, 36.157227%, 70.817566%)" offset="0.84375"/><stop stop-opacity="1" stop-color="rgb(23.124695%, 36.408997%, 71.130371%)" offset="0.859375"/><stop stop-opacity="1" stop-color="rgb(23.332214%, 36.660767%, 71.44165%)" offset="0.875"/><stop stop-opacity="1" stop-color="rgb(23.539734%, 36.912537%, 71.754456%)" offset="0.890625"/><stop stop-opacity="1" stop-color="rgb(23.748779%, 37.162781%, 72.067261%)" offset="0.90625"/><stop stop-opacity="1" stop-color="rgb(23.956299%, 37.414551%, 72.380066%)" offset="0.921875"/><stop stop-opacity="1" stop-color="rgb(24.163818%, 37.666321%, 72.692871%)" offset="0.9375"/><stop stop-opacity="1" stop-color="rgb(24.371338%, 37.918091%, 73.00415%)" offset="0.953125"/><stop stop-opacity="1" stop-color="rgb(24.578857%, 38.169861%, 73.316956%)" offset="0.96875"/><stop stop-opacity="1" stop-color="rgb(24.787903%, 38.421631%, 73.629761%)" offset="0.984375"/><stop stop-opacity="1" stop-color="rgb(24.995422%, 38.673401%, 73.942566%)" offset="1"/></linearGradient><clipPath id="6f031fe2f2"><path d="M 0.644531 0 L 82 0 L 82 292 L 0.644531 292 Z M 0.644531 0 " clip-rule="nonzero"/></clipPath><clipPath id="9a16163194"><path d="M 0.644531 0 L 54 0 L 54 292 L 0.644531 292 Z M 0.644531 0 " clip-rule="nonzero"/></clipPath><clipPath id="ec93c65afd"><path d="M 0.644531 0 L 82.042969 0 L 82.042969 292 L 0.644531 292 Z M 0.644531 0 " clip-rule="nonzero"/></clipPath><clipPath id="391f727583"><path d="M 0.644531 0 L 71 0 L 71 292 L 0.644531 292 Z M 0.644531 0 " clip-rule="nonzero"/></clipPath><clipPath id="7a3ec3ec6a"><path d="M 0.644531 0 L 76 0 L 76 292 L 0.644531 292 Z M 0.644531 0 " clip-rule="nonzero"/></clipPath><clipPath id="abb4194e66"><path d="M 743.164062 0 L 824.117188 0 L 824.117188 292 L 743.164062 292 Z M 743.164062 0 " clip-rule="nonzero"/></clipPath><clipPath id="7ae8937c95"><path d="M 771 0 L 824.117188 0 L 824.117188 292 L 771 292 Z M 771 0 " clip-rule="nonzero"/></clipPath><clipPath id="4e11d99780"><path d="M 743.164062 0 L 824.117188 0 L 824.117188 292 L 743.164062 292 Z M 743.164062 0 " clip-rule="nonzero"/></clipPath><clipPath id="7ce194e47d"><path d="M 754 0 L 824.117188 0 L 824.117188 292 L 754 292 Z M 754 0 " clip-rule="nonzero"/></clipPath><clipPath id="b363fb9874"><path d="M 749 0 L 824.117188 0 L 824.117188 292 L 749 292 Z M 749 0 " clip-rule="nonzero"/></clipPath></defs><g clip-path="url(#df7bede8e9)"><path fill="#ffffff" d="M 0.644531 0 L 824.234375 0 L 824.234375 292 L 0.644531 292 Z M 0.644531 0 " fill-opacity="1" fill-rule="nonzero"/><path fill="url(#8559243532)" d="M 0.644531 0 L 0.644531 292 L 824.117188 292 L 824.117188 0 Z M 0.644531 0 " fill-rule="nonzero"/></g><g clip-path="url(#6f031fe2f2)"><path fill="#000000" d="M 81.546875 292 C 79.519531 288.804688 44.714844 234.289062 24.992188 167.699219 C 19.957031 63.925781 53.546875 -7.347656 53.546875 -7.347656 L -26.582031 -7.347656 L -26.175781 292 Z M 81.546875 292 " fill-opacity="0.15" fill-rule="nonzero"/></g><g clip-path="url(#9a16163194)"><path fill="#d4fcff" d="M 44.34375 291.75 C -14.675781 86.511719 53.808594 -7.347656 53.808594 -7.347656 L -31.515625 -7.347656 C -31.515625 -7.347656 -31.515625 291.75 -31.515625 291.75 Z M 44.34375 291.75 " fill-opacity="1" fill-rule="nonzero"/><path fill="#66aff7" d="M 38.339844 291.75 C -20.679688 86.511719 53.410156 -7.347656 53.410156 -7.347656 L -31.113281 -7.347656 C -31.113281 -7.347656 -31.113281 291.75 -31.113281 291.75 Z M 38.339844 291.75 " fill-opacity="1" fill-rule="nonzero"/></g><g clip-path="url(#ec93c65afd)"><path fill="#ffffff" d="M 82.105469 292 L -20.769531 292 C -20.769531 292 -20.769531 -7.347656 -20.769531 -7.347656 L 53.335938 -7.347656 C 53.335938 -7.347656 -74.222656 44.800781 82.105469 292 Z M 82.105469 292 " fill-opacity="1" fill-rule="nonzero"/></g><g clip-path="url(#391f727583)"><path fill="#d4fcff" d="M 70.207031 292 L -30.296875 292 C -30.296875 292 -30.296875 -7.347656 -30.296875 -7.347656 L 52.625 -7.347656 C 52.625 -7.347656 -77.058594 38.09375 70.207031 292 Z M 70.207031 292 " fill-opacity="1" fill-rule="nonzero"/></g><g clip-path="url(#7a3ec3ec6a)"><path fill="#ffffff" d="M 75.8125 291.878906 L -31.898438 291.878906 C -31.898438 291.878906 -31.898438 -7.464844 -31.898438 -7.464844 L 22.148438 -7.464844 C 22.148438 -7.464844 -80.15625 68.183594 75.8125 291.878906 Z M 75.8125 291.878906 " fill-opacity="1" fill-rule="nonzero"/></g><g clip-path="url(#abb4194e66)"><path fill="#000000" d="M 743.335938 292 C 745.359375 288.804688 780.167969 234.289062 799.890625 167.699219 C 804.925781 63.925781 771.335938 -7.347656 771.335938 -7.347656 L 851.460938 -7.347656 L 851.054688 292 Z M 743.335938 292 " fill-opacity="0.15" fill-rule="nonzero"/></g><g clip-path="url(#7ae8937c95)"><path fill="#d4fcff" d="M 780.535156 291.75 C 839.554688 86.511719 771.070312 -7.347656 771.070312 -7.347656 L 856.394531 -7.347656 C 856.394531 -7.347656 856.394531 291.75 856.394531 291.75 Z M 780.535156 291.75 " fill-opacity="1" fill-rule="nonzero"/><path fill="#66aff7" d="M 786.542969 291.75 C 845.5625 86.511719 771.472656 -7.347656 771.472656 -7.347656 L 855.996094 -7.347656 C 855.996094 -7.347656 855.996094 291.75 855.996094 291.75 Z M 786.542969 291.75 " fill-opacity="1" fill-rule="nonzero"/></g><g clip-path="url(#4e11d99780)"><path fill="#ffffff" d="M 742.773438 292 L 845.648438 292 C 845.648438 292 845.648438 -7.347656 845.648438 -7.347656 L 771.542969 -7.347656 C 771.542969 -7.347656 899.105469 44.800781 742.773438 292 Z M 742.773438 292 " fill-opacity="1" fill-rule="nonzero"/></g><g clip-path="url(#7ce194e47d)"><path fill="#d4fcff" d="M 754.671875 292 L 855.179688 292 C 855.179688 292 855.179688 -7.347656 855.179688 -7.347656 L 772.257812 -7.347656 C 772.257812 -7.347656 901.941406 38.09375 754.671875 292 Z M 754.671875 292 " fill-opacity="1" fill-rule="nonzero"/></g><g clip-path="url(#b363fb9874)"><path fill="#ffffff" d="M 749.066406 291.878906 L 856.78125 291.878906 C 856.78125 291.878906 856.78125 -7.464844 856.78125 -7.464844 L 802.730469 -7.464844 C 802.730469 -7.464844 905.039062 68.183594 749.066406 291.878906 Z M 749.066406 291.878906 " fill-opacity="1" fill-rule="nonzero"/></g></svg>