<svg xmlns="http://www.w3.org/2000/svg" xmlns:xlink="http://www.w3.org/1999/xlink" width="109" zoomAndPan="magnify" viewBox="0 0 81.75 36.750001" height="49" preserveAspectRatio="xMidYMid meet" version="1.0"><defs><g/><clipPath id="e9ee72986f"><path d="M 0.152344 0 L 81.351562 0 L 81.351562 36.5 L 0.152344 36.5 Z M 0.152344 0 " clip-rule="nonzero"/></clipPath><clipPath id="29b8e84e55"><path d="M 4 3.648438 L 24 3.648438 L 24 28.976562 L 4 28.976562 Z M 4 3.648438 " clip-rule="nonzero"/></clipPath><clipPath id="f13fdf44a7"><path d="M 12 5 L 24.660156 5 L 24.660156 28.976562 L 12 28.976562 Z M 12 5 " clip-rule="nonzero"/></clipPath><clipPath id="8791de6046"><path d="M 8 16 L 14 16 L 14 28.976562 L 8 28.976562 Z M 8 16 " clip-rule="nonzero"/></clipPath><clipPath id="ea35d0324e"><path d="M 3.800781 5 L 16 5 L 16 28.976562 L 3.800781 28.976562 Z M 3.800781 5 " clip-rule="nonzero"/></clipPath><clipPath id="005a6fa197"><path d="M 15 16 L 20 16 L 20 28.976562 L 15 28.976562 Z M 15 16 " clip-rule="nonzero"/></clipPath></defs><g clip-path="url(#e9ee72986f)"><path fill="#ffffff" d="M 0.152344 0 L 81.351562 0 L 81.351562 36.5 L 0.152344 36.5 Z M 0.152344 0 " fill-opacity="1" fill-rule="nonzero"/><path fill="#1e3a8a" d="M 0.152344 0 L 81.351562 0 L 81.351562 36.5 L 0.152344 36.5 Z M 0.152344 0 " fill-opacity="1" fill-rule="nonzero"/></g><g clip-path="url(#29b8e84e55)"><path fill="#f8f9f9" d="M 22.984375 10.945312 C 22.925781 11.425781 22.835938 11.898438 22.726562 12.363281 C 22.699219 12.476562 22.671875 12.589844 22.644531 12.703125 L 22.597656 12.875 C 22.582031 12.929688 22.566406 12.988281 22.550781 13.042969 C 22.519531 13.15625 22.488281 13.265625 22.457031 13.375 C 22.421875 13.484375 22.386719 13.59375 22.355469 13.699219 L 22.328125 13.777344 L 22.316406 13.820312 L 22.300781 13.859375 C 22.285156 13.914062 22.265625 13.964844 22.25 14.015625 C 22.210938 14.121094 22.179688 14.222656 22.140625 14.328125 C 22.101562 14.429688 22.0625 14.527344 22.027344 14.628906 C 21.988281 14.726562 21.949219 14.824219 21.910156 14.917969 C 21.757812 15.300781 21.597656 15.65625 21.441406 15.980469 C 21.128906 16.628906 20.828125 17.148438 20.613281 17.507812 C 20.507812 17.6875 20.417969 17.828125 20.355469 17.921875 C 20.296875 18.015625 20.265625 18.066406 20.265625 18.066406 C 20.265625 18.066406 20.292969 18.015625 20.347656 17.917969 C 20.402344 17.816406 20.480469 17.671875 20.578125 17.488281 C 20.675781 17.304688 20.792969 17.078125 20.921875 16.816406 C 21.046875 16.554688 21.1875 16.257812 21.332031 15.929688 C 21.472656 15.605469 21.621094 15.246094 21.765625 14.863281 C 21.785156 14.816406 21.800781 14.765625 21.820312 14.71875 C 21.839844 14.667969 21.855469 14.621094 21.871094 14.570312 C 21.90625 14.472656 21.941406 14.371094 21.976562 14.269531 L 22.003906 14.195312 L 22.027344 14.117188 C 22.046875 14.066406 22.0625 14.011719 22.078125 13.960938 C 22.097656 13.90625 22.113281 13.855469 22.128906 13.800781 L 22.144531 13.761719 L 22.179688 13.644531 C 22.210938 13.535156 22.242188 13.429688 22.273438 13.320312 C 22.304688 13.210938 22.332031 13.101562 22.363281 12.988281 C 22.378906 12.933594 22.394531 12.878906 22.40625 12.824219 L 22.429688 12.738281 L 22.441406 12.699219 L 22.449219 12.65625 C 22.476562 12.542969 22.503906 12.429688 22.53125 12.3125 C 22.636719 11.863281 22.722656 11.390625 22.777344 10.921875 C 22.835938 10.449219 22.863281 9.976562 22.855469 9.511719 C 22.851562 9.28125 22.835938 9.050781 22.816406 8.824219 C 22.792969 8.597656 22.757812 8.375 22.714844 8.15625 C 22.625 7.722656 22.496094 7.316406 22.335938 6.941406 C 22.171875 6.570312 21.980469 6.242188 21.765625 5.957031 C 21.554688 5.671875 21.328125 5.4375 21.113281 5.242188 C 20.898438 5.046875 20.695312 4.898438 20.519531 4.785156 C 20.347656 4.667969 20.199219 4.597656 20.101562 4.539062 C 20.003906 4.484375 19.953125 4.457031 19.953125 4.457031 C 19.953125 4.457031 20.003906 4.484375 20.109375 4.53125 C 20.207031 4.578125 20.363281 4.640625 20.542969 4.75 C 20.722656 4.855469 20.9375 4.996094 21.164062 5.183594 C 21.390625 5.367188 21.632812 5.601562 21.859375 5.882812 C 21.976562 6.023438 22.085938 6.179688 22.191406 6.34375 C 22.296875 6.511719 22.390625 6.691406 22.480469 6.878906 C 22.65625 7.257812 22.800781 7.675781 22.894531 8.121094 C 22.992188 8.5625 23.046875 9.03125 23.058594 9.507812 C 23.070312 9.984375 23.042969 10.46875 22.984375 10.945312 Z M 23.410156 8.839844 C 23.363281 8.191406 23.226562 7.542969 22.984375 6.933594 C 22.921875 6.78125 22.855469 6.628906 22.78125 6.484375 C 22.707031 6.335938 22.625 6.195312 22.535156 6.058594 C 22.449219 5.921875 22.351562 5.789062 22.25 5.660156 C 22.152344 5.535156 22.042969 5.414062 21.933594 5.300781 C 21.710938 5.070312 21.46875 4.867188 21.214844 4.691406 C 21.085938 4.605469 20.957031 4.523438 20.828125 4.449219 C 20.695312 4.375 20.5625 4.308594 20.429688 4.246094 C 19.894531 4.003906 19.347656 3.851562 18.820312 3.769531 C 18.296875 3.6875 17.785156 3.664062 17.300781 3.6875 C 16.820312 3.707031 16.363281 3.765625 15.933594 3.855469 C 15.507812 3.941406 15.113281 4.050781 14.75 4.183594 C 14.382812 4.3125 14.054688 4.457031 13.757812 4.617188 C 13.464844 4.773438 13.207031 4.941406 12.988281 5.113281 C 12.972656 5.125 12.957031 5.140625 12.941406 5.152344 C 12.839844 5.058594 12.726562 4.964844 12.601562 4.875 C 12.402344 4.722656 12.175781 4.578125 11.921875 4.441406 C 11.667969 4.304688 11.386719 4.175781 11.078125 4.066406 C 10.773438 3.953125 10.441406 3.859375 10.085938 3.789062 C 9.734375 3.71875 9.351562 3.675781 8.953125 3.679688 C 8.554688 3.679688 8.136719 3.730469 7.710938 3.851562 C 7.5 3.914062 7.289062 3.992188 7.082031 4.089844 C 6.875 4.195312 6.671875 4.316406 6.480469 4.460938 C 6.292969 4.605469 6.113281 4.769531 5.949219 4.953125 C 5.867188 5.042969 5.792969 5.140625 5.722656 5.242188 C 5.648438 5.339844 5.582031 5.445312 5.523438 5.550781 C 5.273438 5.976562 5.097656 6.441406 4.992188 6.914062 C 4.882812 7.386719 4.828125 7.871094 4.816406 8.351562 C 4.8125 8.589844 4.816406 8.832031 4.828125 9.070312 C 4.832031 9.128906 4.835938 9.1875 4.839844 9.25 L 4.839844 9.292969 L 4.84375 9.34375 L 4.851562 9.429688 L 4.867188 9.597656 L 4.875 9.683594 L 4.882812 9.773438 C 4.898438 9.894531 4.910156 10.015625 4.925781 10.132812 C 4.945312 10.25 4.960938 10.367188 4.976562 10.488281 L 5.039062 10.835938 L 5.109375 11.1875 C 5.207031 11.652344 5.332031 12.109375 5.472656 12.5625 C 5.542969 12.785156 5.617188 13.007812 5.699219 13.230469 C 5.738281 13.339844 5.78125 13.449219 5.824219 13.558594 C 5.863281 13.664062 5.910156 13.773438 5.953125 13.878906 C 6.308594 14.738281 6.730469 15.546875 7.1875 16.300781 C 7.414062 16.671875 7.648438 17.035156 7.890625 17.378906 C 8.132812 17.722656 8.378906 18.054688 8.625 18.367188 C 8.875 18.679688 9.125 18.976562 9.371094 19.257812 C 9.621094 19.539062 9.867188 19.804688 10.105469 20.054688 C 10.347656 20.304688 10.585938 20.539062 10.8125 20.753906 C 11.042969 20.972656 11.265625 21.171875 11.476562 21.355469 C 11.902344 21.726562 12.28125 22.03125 12.605469 22.273438 C 12.925781 22.515625 13.1875 22.695312 13.367188 22.816406 C 13.457031 22.875 13.527344 22.917969 13.574219 22.949219 C 13.621094 22.976562 13.644531 22.992188 13.644531 22.992188 C 13.644531 22.992188 13.625 22.972656 13.585938 22.933594 C 13.546875 22.894531 13.488281 22.832031 13.414062 22.757812 C 13.265625 22.601562 13.046875 22.375 12.78125 22.082031 C 12.511719 21.789062 12.1875 21.429688 11.832031 21.007812 C 11.652344 20.796875 11.464844 20.570312 11.269531 20.332031 C 11.074219 20.09375 10.875 19.835938 10.671875 19.570312 C 10.464844 19.300781 10.253906 19.019531 10.042969 18.722656 C 9.832031 18.429688 9.617188 18.121094 9.40625 17.800781 C 9.195312 17.480469 8.980469 17.148438 8.773438 16.804688 C 8.566406 16.460938 8.363281 16.105469 8.167969 15.738281 C 7.773438 15.003906 7.40625 14.226562 7.09375 13.421875 C 7.054688 13.320312 7.015625 13.21875 6.980469 13.117188 C 6.941406 13.015625 6.90625 12.914062 6.871094 12.8125 C 6.796875 12.605469 6.730469 12.398438 6.664062 12.191406 C 6.535156 11.773438 6.429688 11.351562 6.332031 10.925781 L 6.265625 10.605469 L 6.207031 10.28125 L 6.15625 9.960938 C 6.148438 9.90625 6.144531 9.855469 6.136719 9.800781 L 6.113281 9.644531 L 6.105469 9.566406 L 6.09375 9.480469 L 6.078125 9.3125 L 6.066406 9.226562 L 6.066406 9.207031 C 6.066406 9.207031 6.0625 9.199219 6.0625 9.199219 L 6.0625 9.195312 L 6.058594 9.15625 C 6.054688 9.101562 6.050781 9.046875 6.046875 8.996094 C 6.03125 8.785156 6.023438 8.574219 6.023438 8.363281 C 6.019531 7.949219 6.046875 7.539062 6.121094 7.152344 C 6.160156 6.960938 6.207031 6.773438 6.261719 6.59375 C 6.320312 6.414062 6.390625 6.242188 6.476562 6.078125 C 6.640625 5.757812 6.855469 5.476562 7.117188 5.246094 C 7.246094 5.132812 7.386719 5.035156 7.535156 4.949219 C 7.609375 4.90625 7.683594 4.863281 7.761719 4.824219 C 7.839844 4.789062 7.917969 4.753906 8 4.722656 C 8.320312 4.601562 8.660156 4.53125 8.996094 4.492188 C 9.332031 4.457031 9.667969 4.460938 9.988281 4.484375 C 10.632812 4.539062 11.226562 4.683594 11.726562 4.867188 C 11.980469 4.960938 12.210938 5.0625 12.414062 5.171875 C 12.523438 5.226562 12.625 5.285156 12.71875 5.34375 C 12.617188 5.4375 12.527344 5.535156 12.453125 5.625 C 12.316406 5.792969 12.222656 5.953125 12.164062 6.089844 C 12.105469 6.226562 12.085938 6.335938 12.074219 6.410156 C 12.066406 6.449219 12.066406 6.476562 12.0625 6.492188 C 12.0625 6.511719 12.0625 6.523438 12.0625 6.523438 C 12.0625 6.523438 12.0625 6.511719 12.070312 6.496094 C 12.074219 6.476562 12.082031 6.449219 12.097656 6.414062 C 12.121094 6.347656 12.167969 6.25 12.246094 6.132812 C 12.328125 6.019531 12.441406 5.890625 12.59375 5.761719 C 12.695312 5.675781 12.816406 5.589844 12.953125 5.503906 C 13.019531 5.464844 13.089844 5.421875 13.164062 5.382812 C 13.167969 5.382812 13.167969 5.382812 13.167969 5.382812 C 13.394531 5.261719 13.65625 5.148438 13.949219 5.046875 C 14.242188 4.945312 14.566406 4.855469 14.917969 4.785156 C 15.269531 4.714844 15.644531 4.65625 16.042969 4.628906 C 16.441406 4.601562 16.859375 4.597656 17.292969 4.628906 C 17.722656 4.660156 18.164062 4.722656 18.601562 4.839844 C 19.039062 4.953125 19.476562 5.117188 19.875 5.34375 C 19.976562 5.402344 20.074219 5.460938 20.167969 5.527344 C 20.261719 5.589844 20.355469 5.660156 20.445312 5.730469 C 20.621094 5.875 20.789062 6.035156 20.9375 6.214844 C 21.011719 6.300781 21.082031 6.394531 21.148438 6.488281 C 21.210938 6.585938 21.273438 6.683594 21.328125 6.785156 C 21.386719 6.890625 21.441406 6.996094 21.488281 7.105469 C 21.535156 7.214844 21.578125 7.324219 21.617188 7.441406 C 21.695312 7.671875 21.753906 7.914062 21.792969 8.160156 C 21.832031 8.410156 21.859375 8.667969 21.867188 8.929688 C 21.882812 9.457031 21.84375 10 21.753906 10.550781 C 21.714844 10.828125 21.660156 11.101562 21.59375 11.378906 C 21.578125 11.449219 21.5625 11.519531 21.546875 11.589844 L 21.535156 11.640625 L 21.53125 11.648438 C 21.53125 11.648438 21.53125 11.65625 21.53125 11.65625 L 21.492188 11.792969 L 21.4375 12.011719 L 21.40625 12.121094 L 21.375 12.226562 L 21.316406 12.429688 C 21.296875 12.496094 21.28125 12.5625 21.257812 12.632812 C 21.210938 12.773438 21.167969 12.910156 21.125 13.046875 L 20.980469 13.460938 L 20.832031 13.871094 C 20.414062 14.960938 19.898438 16.015625 19.324219 17.019531 C 18.75 18.023438 18.109375 18.976562 17.441406 19.863281 C 17.109375 20.3125 16.769531 20.738281 16.425781 21.152344 C 16.082031 21.566406 15.734375 21.964844 15.390625 22.34375 C 15.046875 22.726562 14.703125 23.089844 14.363281 23.4375 C 14.023438 23.785156 13.691406 24.113281 13.363281 24.425781 C 13.039062 24.742188 12.722656 25.035156 12.417969 25.3125 C 12.113281 25.59375 11.820312 25.851562 11.539062 26.09375 C 10.984375 26.578125 10.488281 26.992188 10.074219 27.324219 C 9.65625 27.660156 9.324219 27.914062 9.097656 28.089844 C 8.984375 28.175781 8.894531 28.242188 8.835938 28.289062 C 8.777344 28.332031 8.746094 28.355469 8.746094 28.355469 C 8.746094 28.355469 8.78125 28.339844 8.847656 28.308594 C 8.917969 28.28125 9.019531 28.238281 9.148438 28.175781 C 9.28125 28.117188 9.441406 28.039062 9.628906 27.945312 C 9.816406 27.851562 10.027344 27.742188 10.265625 27.613281 C 10.738281 27.359375 11.304688 27.03125 11.9375 26.628906 C 12.253906 26.425781 12.589844 26.203125 12.9375 25.964844 C 13.28125 25.726562 13.640625 25.464844 14.011719 25.183594 C 14.378906 24.902344 14.757812 24.601562 15.144531 24.277344 C 15.527344 23.957031 15.914062 23.613281 16.308594 23.25 C 16.695312 22.882812 17.085938 22.496094 17.476562 22.089844 C 17.863281 21.683594 18.25 21.253906 18.625 20.804688 C 19.378906 19.90625 20.097656 18.917969 20.742188 17.855469 C 21.386719 16.796875 21.949219 15.65625 22.398438 14.464844 L 22.5625 14.019531 L 22.710938 13.566406 C 22.757812 13.414062 22.804688 13.261719 22.851562 13.109375 C 22.898438 12.957031 22.9375 12.796875 22.980469 12.644531 L 23.011719 12.527344 L 23.039062 12.414062 L 23.089844 12.195312 L 23.125 12.054688 L 23.144531 11.957031 C 23.164062 11.878906 23.179688 11.800781 23.195312 11.722656 C 23.257812 11.410156 23.3125 11.09375 23.351562 10.777344 C 23.433594 10.136719 23.460938 9.488281 23.410156 8.839844 " fill-opacity="1" fill-rule="nonzero"/></g><g clip-path="url(#f13fdf44a7)"><path fill="#81cd39" d="M 23.765625 12.578125 C 23.277344 12.542969 22.859375 12.617188 22.757812 12.75 C 22.882812 12.804688 23.011719 12.855469 23.140625 12.894531 C 23.214844 12.917969 23.289062 12.9375 23.367188 12.953125 C 23.386719 12.957031 23.402344 12.960938 23.421875 12.960938 C 23.441406 12.964844 23.460938 12.96875 23.480469 12.972656 C 23.5 12.972656 23.519531 12.976562 23.539062 12.976562 L 23.597656 12.976562 L 23.539062 12.980469 C 23.519531 12.980469 23.5 12.980469 23.480469 12.980469 C 23.460938 12.980469 23.441406 12.976562 23.421875 12.976562 C 23.402344 12.976562 23.382812 12.972656 23.363281 12.96875 C 23.285156 12.960938 23.210938 12.945312 23.132812 12.929688 C 22.980469 12.894531 22.832031 12.847656 22.683594 12.796875 L 22.679688 12.796875 L 22.675781 12.792969 C 22.636719 12.777344 22.59375 12.765625 22.546875 12.75 C 22.175781 12.617188 21.722656 12.46875 21.191406 12.316406 C 20.65625 12.167969 20.050781 12.011719 19.375 11.882812 C 18.699219 11.753906 17.953125 11.640625 17.132812 11.613281 C 17.035156 11.609375 16.941406 11.605469 16.84375 11.605469 C 16.84375 11.605469 14.839844 11.5 15.445312 9.71875 C 15.953125 8.808594 16.589844 7.84375 17.355469 6.96875 C 17.367188 6.957031 17.375 6.941406 17.382812 6.929688 C 17.4375 6.859375 17.496094 6.792969 17.558594 6.730469 C 17.8125 6.472656 18.109375 6.269531 18.109375 6.269531 C 18.109375 6.269531 18.039062 6.328125 17.9375 6.414062 C 17.84375 6.5 17.722656 6.621094 17.609375 6.75 C 17.609375 6.75 17.609375 6.75 17.613281 6.75 C 17.710938 6.894531 18.171875 6.789062 18.640625 6.515625 C 19.113281 6.246094 19.410156 5.910156 19.3125 5.765625 C 19.21875 5.628906 18.792969 5.71875 18.347656 5.964844 C 18.351562 5.960938 18.355469 5.957031 18.359375 5.953125 C 18.359375 5.953125 11.578125 9.132812 12.902344 16.652344 C 12.921875 16.816406 12.945312 16.980469 12.976562 17.148438 C 13.09375 17.996094 13.265625 18.828125 13.488281 19.632812 C 13.542969 19.832031 13.601562 20.03125 13.660156 20.230469 C 13.722656 20.429688 13.785156 20.625 13.847656 20.820312 C 13.976562 21.207031 14.109375 21.585938 14.257812 21.957031 C 14.546875 22.699219 14.859375 23.402344 15.191406 24.058594 C 15.355469 24.386719 15.519531 24.703125 15.691406 25.003906 C 15.863281 25.304688 16.035156 25.589844 16.203125 25.863281 C 16.542969 26.398438 16.875 26.878906 17.195312 27.289062 C 17.210938 27.320312 17.25 27.375 17.324219 27.453125 C 17.402344 27.554688 17.484375 27.652344 17.558594 27.746094 C 17.753906 28.023438 17.820312 28.234375 17.84375 28.332031 L 17.855469 28.394531 L 17.9375 28.859375 C 17.847656 29.003906 17.960938 29.183594 18.140625 29.183594 L 19.398438 29.183594 C 19.578125 29.183594 19.691406 29.003906 19.601562 28.859375 L 18.167969 27.867188 C 18.164062 27.863281 18.160156 27.859375 18.15625 27.851562 C 18.023438 27.609375 17.875 27.339844 17.722656 27.039062 C 17.492188 26.589844 17.25 26.074219 17.003906 25.511719 C 16.757812 24.945312 16.503906 24.328125 16.261719 23.667969 C 16.015625 23.011719 15.777344 22.308594 15.550781 21.582031 C 15.441406 21.21875 15.332031 20.847656 15.226562 20.46875 C 15.175781 20.28125 15.128906 20.089844 15.078125 19.898438 C 15.03125 19.707031 14.980469 19.515625 14.9375 19.324219 C 14.773438 18.621094 14.628906 17.90625 14.523438 17.191406 C 14.519531 17.15625 14.511719 17.117188 14.503906 17.078125 C 14.480469 16.949219 14.460938 16.816406 14.441406 16.6875 C 14.429688 16.554688 14.410156 16.425781 14.398438 16.296875 C 14.386719 16.164062 14.371094 16.035156 14.363281 15.902344 C 14.355469 15.773438 14.34375 15.640625 14.34375 15.511719 C 14.339844 15.378906 14.332031 15.25 14.332031 15.117188 L 14.332031 14.726562 C 14.335938 14.59375 14.34375 14.464844 14.347656 14.335938 C 14.351562 14.269531 14.351562 14.203125 14.355469 14.136719 L 14.371094 13.941406 C 14.382812 13.8125 14.390625 13.683594 14.40625 13.554688 L 14.457031 13.164062 C 14.46875 13.035156 14.496094 12.90625 14.515625 12.777344 L 14.550781 12.585938 C 14.558594 12.523438 14.570312 12.457031 14.585938 12.394531 L 14.671875 12.011719 C 14.695312 11.886719 14.734375 11.761719 14.769531 11.636719 L 14.871094 11.261719 L 14.789062 11.640625 C 14.761719 11.765625 14.730469 11.894531 14.710938 12.023438 L 14.644531 12.40625 C 14.632812 12.46875 14.625 12.53125 14.617188 12.597656 L 14.597656 12.789062 C 14.582031 12.917969 14.5625 13.046875 14.554688 13.175781 L 14.527344 13.5625 C 14.515625 13.691406 14.519531 13.820312 14.511719 13.949219 L 14.507812 14.144531 C 14.503906 14.207031 14.507812 14.273438 14.507812 14.335938 C 14.507812 14.414062 14.507812 14.488281 14.511719 14.5625 C 14.980469 13.09375 16.546875 12.714844 17.65625 12.640625 C 17.847656 12.636719 18.039062 12.636719 18.226562 12.640625 C 18.578125 12.644531 18.921875 12.660156 19.25 12.679688 C 19.914062 12.722656 20.523438 12.785156 21.066406 12.84375 C 21.605469 12.902344 22.078125 12.96875 22.46875 13.019531 C 22.847656 13.070312 23.148438 13.109375 23.355469 13.144531 C 23.449219 13.160156 23.546875 13.175781 23.652344 13.183594 C 23.683594 13.1875 23.703125 13.191406 23.703125 13.191406 C 23.703125 13.191406 23.699219 13.191406 23.695312 13.1875 C 23.699219 13.1875 23.703125 13.1875 23.710938 13.191406 C 24.265625 13.230469 24.726562 13.128906 24.742188 12.960938 C 24.757812 12.792969 24.320312 12.621094 23.765625 12.578125 " fill-opacity="1" fill-rule="nonzero"/></g><path fill="#ffffff" d="M 16.84375 11.816406 C 16.84375 11.816406 16.910156 11.820312 17.03125 11.828125 C 17.09375 11.832031 17.164062 11.839844 17.25 11.847656 C 17.332031 11.855469 17.425781 11.863281 17.53125 11.875 C 17.734375 11.894531 17.976562 11.921875 18.230469 11.957031 C 18.359375 11.972656 18.488281 11.996094 18.625 12.015625 C 18.757812 12.035156 18.894531 12.058594 19.03125 12.082031 C 19.164062 12.105469 19.300781 12.128906 19.433594 12.15625 C 19.566406 12.183594 19.699219 12.207031 19.824219 12.230469 C 20.078125 12.285156 20.3125 12.335938 20.515625 12.378906 C 20.921875 12.46875 21.191406 12.527344 21.191406 12.527344 C 21.191406 12.527344 21.125 12.503906 21.007812 12.464844 C 20.894531 12.429688 20.730469 12.375 20.53125 12.320312 C 20.332031 12.261719 20.097656 12.199219 19.84375 12.140625 C 19.71875 12.113281 19.585938 12.082031 19.453125 12.054688 C 19.320312 12.027344 19.183594 12.003906 19.046875 11.980469 C 18.773438 11.933594 18.5 11.890625 18.242188 11.867188 C 17.984375 11.835938 17.742188 11.820312 17.535156 11.8125 C 17.429688 11.808594 17.335938 11.808594 17.25 11.808594 C 17.167969 11.808594 17.09375 11.808594 17.03125 11.808594 C 16.910156 11.8125 16.84375 11.816406 16.84375 11.816406 " fill-opacity="1" fill-rule="nonzero"/><g clip-path="url(#8791de6046)"><path fill="#81cd39" d="M 8.726562 28.867188 L 9.855469 28.074219 C 9.96875 27.964844 10.207031 27.617188 10.441406 26.53125 C 10.464844 26.429688 10.488281 26.324219 10.507812 26.21875 C 10.597656 25.808594 10.695312 25.363281 10.800781 24.894531 C 10.902344 24.421875 11.019531 23.925781 11.132812 23.414062 C 11.25 22.902344 11.367188 22.371094 11.496094 21.835938 C 11.625 21.300781 11.753906 20.753906 11.882812 20.207031 C 12.011719 19.664062 12.132812 19.113281 12.242188 18.574219 C 12.355469 18.035156 12.46875 17.503906 12.613281 16.996094 C 12.617188 16.980469 12.621094 16.960938 12.628906 16.945312 C 12.640625 17.027344 12.652344 17.105469 12.667969 17.1875 C 12.785156 18.035156 12.960938 18.878906 13.1875 19.699219 C 13.21875 19.820312 13.253906 19.941406 13.285156 20.054688 C 13.234375 20.207031 13.179688 20.359375 13.128906 20.507812 C 12.945312 21.042969 12.765625 21.574219 12.585938 22.097656 C 12.40625 22.625 12.222656 23.136719 12.046875 23.636719 C 11.871094 24.132812 11.703125 24.617188 11.535156 25.070312 C 11.371094 25.527344 11.214844 25.957031 11.070312 26.355469 C 10.925781 26.753906 10.792969 27.117188 10.675781 27.441406 C 10.613281 27.605469 10.582031 27.757812 10.554688 27.898438 L 10.390625 28.855469 C 10.480469 29 10.367188 29.179688 10.1875 29.179688 L 8.929688 29.1875 C 8.75 29.1875 8.636719 29.011719 8.726562 28.867188 " fill-opacity="1" fill-rule="nonzero"/></g><path fill="#81cd39" d="M 16.84375 11.089844 C 16.277344 11.089844 15.820312 10.628906 15.820312 10.066406 C 15.820312 9.5 16.277344 9.042969 16.84375 9.042969 C 17.40625 9.042969 17.867188 9.5 17.867188 10.066406 C 17.867188 10.628906 17.40625 11.089844 16.84375 11.089844 " fill-opacity="1" fill-rule="nonzero"/><path fill="#ffffff" d="M 17.421875 9.484375 C 17.421875 9.484375 17.414062 9.480469 17.402344 9.464844 C 17.386719 9.453125 17.371094 9.429688 17.34375 9.40625 C 17.328125 9.394531 17.316406 9.382812 17.296875 9.367188 C 17.28125 9.355469 17.261719 9.34375 17.238281 9.328125 C 17.21875 9.316406 17.195312 9.304688 17.171875 9.292969 C 17.144531 9.277344 17.117188 9.269531 17.085938 9.257812 C 17.058594 9.246094 17.027344 9.238281 16.996094 9.230469 C 16.960938 9.222656 16.925781 9.214844 16.890625 9.214844 C 16.820312 9.207031 16.742188 9.210938 16.664062 9.226562 C 16.585938 9.238281 16.507812 9.265625 16.433594 9.304688 C 16.359375 9.34375 16.292969 9.394531 16.230469 9.457031 C 16.175781 9.511719 16.121094 9.585938 16.082031 9.65625 C 16.042969 9.730469 16.015625 9.808594 16.003906 9.886719 C 15.988281 9.964844 15.984375 10.042969 15.992188 10.113281 C 15.992188 10.148438 16 10.183594 16.007812 10.21875 C 16.015625 10.25 16.023438 10.28125 16.035156 10.308594 C 16.046875 10.339844 16.054688 10.367188 16.070312 10.390625 C 16.082031 10.417969 16.09375 10.441406 16.105469 10.460938 C 16.121094 10.484375 16.132812 10.503906 16.144531 10.519531 C 16.160156 10.535156 16.171875 10.550781 16.183594 10.566406 C 16.207031 10.59375 16.230469 10.609375 16.242188 10.625 C 16.257812 10.636719 16.261719 10.644531 16.261719 10.644531 C 16.261719 10.644531 16.257812 10.636719 16.246094 10.621094 C 16.234375 10.605469 16.214844 10.585938 16.199219 10.554688 C 16.191406 10.539062 16.179688 10.523438 16.167969 10.507812 C 16.160156 10.488281 16.148438 10.46875 16.136719 10.445312 C 16.128906 10.425781 16.121094 10.398438 16.109375 10.375 C 16.101562 10.351562 16.09375 10.324219 16.085938 10.296875 C 16.070312 10.238281 16.058594 10.175781 16.058594 10.109375 C 16.058594 10.042969 16.066406 9.972656 16.082031 9.902344 C 16.097656 9.832031 16.125 9.765625 16.160156 9.699219 C 16.195312 9.632812 16.238281 9.578125 16.296875 9.515625 C 16.347656 9.46875 16.410156 9.417969 16.476562 9.382812 C 16.542969 9.347656 16.609375 9.320312 16.679688 9.304688 C 16.75 9.289062 16.820312 9.277344 16.886719 9.28125 C 16.953125 9.28125 17.015625 9.292969 17.074219 9.304688 C 17.101562 9.316406 17.128906 9.320312 17.152344 9.332031 C 17.175781 9.339844 17.203125 9.347656 17.222656 9.359375 C 17.246094 9.371094 17.265625 9.382812 17.285156 9.390625 C 17.300781 9.402344 17.316406 9.410156 17.332031 9.421875 C 17.363281 9.4375 17.382812 9.457031 17.398438 9.46875 C 17.414062 9.480469 17.421875 9.484375 17.421875 9.484375 " fill-opacity="1" fill-rule="nonzero"/><path fill="#ffffff" d="M 13.210938 16.785156 C 13.210938 16.785156 13.203125 16.742188 13.195312 16.664062 C 13.1875 16.585938 13.171875 16.472656 13.152344 16.328125 C 13.148438 16.257812 13.140625 16.175781 13.132812 16.089844 C 13.125 16 13.113281 15.90625 13.109375 15.804688 C 13.105469 15.703125 13.101562 15.597656 13.09375 15.484375 C 13.09375 15.371094 13.089844 15.25 13.089844 15.125 C 13.085938 14.875 13.09375 14.605469 13.113281 14.324219 C 13.117188 14.25 13.125 14.179688 13.132812 14.105469 C 13.140625 14.035156 13.148438 13.960938 13.15625 13.886719 C 13.175781 13.738281 13.195312 13.585938 13.21875 13.433594 C 13.246094 13.28125 13.269531 13.125 13.304688 12.96875 C 13.324219 12.890625 13.339844 12.8125 13.359375 12.734375 C 13.378906 12.65625 13.398438 12.578125 13.417969 12.5 C 13.503906 12.183594 13.605469 11.867188 13.726562 11.5625 C 13.78125 11.40625 13.851562 11.253906 13.914062 11.101562 C 13.984375 10.953125 14.050781 10.804688 14.128906 10.660156 C 14.164062 10.585938 14.203125 10.515625 14.242188 10.445312 C 14.28125 10.375 14.316406 10.304688 14.359375 10.234375 C 14.398438 10.164062 14.4375 10.097656 14.480469 10.03125 C 14.519531 9.960938 14.5625 9.898438 14.605469 9.832031 C 14.773438 9.570312 14.941406 9.324219 15.117188 9.097656 C 15.289062 8.871094 15.460938 8.664062 15.628906 8.476562 C 15.792969 8.289062 15.949219 8.125 16.09375 7.980469 C 16.164062 7.90625 16.230469 7.839844 16.292969 7.777344 C 16.359375 7.71875 16.417969 7.664062 16.46875 7.613281 C 16.578125 7.515625 16.660156 7.4375 16.71875 7.386719 C 16.777344 7.332031 16.808594 7.304688 16.808594 7.304688 C 16.808594 7.304688 16.777344 7.332031 16.714844 7.378906 C 16.652344 7.425781 16.5625 7.496094 16.449219 7.589844 C 16.394531 7.636719 16.332031 7.691406 16.265625 7.746094 C 16.199219 7.804688 16.128906 7.867188 16.050781 7.9375 C 15.902344 8.074219 15.734375 8.234375 15.5625 8.414062 C 15.472656 8.503906 15.386719 8.605469 15.296875 8.703125 C 15.207031 8.804688 15.113281 8.910156 15.023438 9.023438 C 14.84375 9.246094 14.660156 9.492188 14.488281 9.753906 C 14.3125 10.015625 14.144531 10.296875 13.992188 10.589844 C 13.914062 10.738281 13.84375 10.886719 13.773438 11.039062 C 13.738281 11.117188 13.707031 11.195312 13.671875 11.269531 C 13.640625 11.347656 13.609375 11.425781 13.578125 11.503906 C 13.457031 11.816406 13.355469 12.140625 13.273438 12.460938 C 13.253906 12.539062 13.234375 12.621094 13.210938 12.699219 C 13.195312 12.78125 13.179688 12.859375 13.164062 12.941406 C 13.128906 13.097656 13.109375 13.257812 13.082031 13.414062 C 13.070312 13.488281 13.0625 13.566406 13.050781 13.644531 C 13.042969 13.722656 13.03125 13.796875 13.027344 13.871094 C 13.019531 13.949219 13.015625 14.023438 13.011719 14.097656 C 13.003906 14.171875 13 14.242188 12.996094 14.316406 C 12.984375 14.605469 12.988281 14.875 13 15.128906 C 13.007812 15.253906 13.011719 15.375 13.019531 15.488281 C 13.03125 15.601562 13.042969 15.710938 13.054688 15.8125 C 13.0625 15.914062 13.078125 16.007812 13.089844 16.09375 C 13.101562 16.179688 13.113281 16.261719 13.125 16.332031 C 13.148438 16.476562 13.171875 16.589844 13.1875 16.667969 C 13.203125 16.742188 13.210938 16.785156 13.210938 16.785156 " fill-opacity="1" fill-rule="nonzero"/><path fill="#ffffff" d="M 12.601562 18.023438 C 12.601562 18.023438 12.59375 18.054688 12.578125 18.113281 C 12.5625 18.167969 12.539062 18.253906 12.511719 18.359375 C 12.457031 18.574219 12.371094 18.882812 12.28125 19.25 C 12.234375 19.433594 12.1875 19.632812 12.132812 19.847656 C 12.082031 20.058594 12.03125 20.28125 11.972656 20.511719 C 11.921875 20.742188 11.863281 20.980469 11.808594 21.222656 C 11.753906 21.46875 11.695312 21.714844 11.640625 21.960938 C 11.585938 22.207031 11.53125 22.457031 11.476562 22.699219 C 11.421875 22.941406 11.375 23.183594 11.324219 23.414062 C 11.226562 23.878906 11.136719 24.316406 11.066406 24.6875 C 10.992188 25.0625 10.9375 25.371094 10.894531 25.589844 C 10.875 25.699219 10.859375 25.785156 10.847656 25.84375 C 10.839844 25.902344 10.832031 25.933594 10.832031 25.933594 C 10.832031 25.933594 10.84375 25.902344 10.859375 25.847656 C 10.871094 25.789062 10.898438 25.703125 10.925781 25.597656 C 10.980469 25.382812 11.0625 25.078125 11.152344 24.707031 C 11.246094 24.339844 11.351562 23.910156 11.460938 23.445312 C 11.515625 23.214844 11.570312 22.976562 11.625 22.734375 C 11.683594 22.488281 11.738281 22.242188 11.792969 21.996094 C 11.847656 21.75 11.902344 21.5 11.957031 21.257812 C 12.011719 21.015625 12.058594 20.773438 12.109375 20.542969 C 12.15625 20.308594 12.203125 20.085938 12.246094 19.871094 C 12.289062 19.65625 12.332031 19.457031 12.367188 19.269531 C 12.441406 18.898438 12.5 18.585938 12.539062 18.367188 C 12.5625 18.257812 12.574219 18.171875 12.585938 18.113281 C 12.59375 18.054688 12.601562 18.023438 12.601562 18.023438 " fill-opacity="1" fill-rule="nonzero"/><g clip-path="url(#ea35d0324e)"><path fill="#3773c3" d="M 4.796875 12.578125 C 5.285156 12.542969 5.703125 12.617188 5.804688 12.75 C 5.679688 12.804688 5.550781 12.855469 5.417969 12.894531 C 5.34375 12.917969 5.269531 12.9375 5.195312 12.953125 C 5.175781 12.957031 5.15625 12.960938 5.136719 12.960938 C 5.117188 12.964844 5.097656 12.96875 5.082031 12.972656 C 5.0625 12.972656 5.042969 12.976562 5.023438 12.976562 L 4.964844 12.976562 L 5.023438 12.980469 C 5.042969 12.980469 5.0625 12.980469 5.082031 12.980469 C 5.101562 12.980469 5.121094 12.976562 5.140625 12.976562 C 5.160156 12.976562 5.179688 12.972656 5.199219 12.96875 C 5.273438 12.960938 5.351562 12.945312 5.425781 12.929688 C 5.578125 12.894531 5.730469 12.847656 5.878906 12.796875 L 5.882812 12.796875 L 5.882812 12.792969 C 5.925781 12.777344 5.96875 12.765625 6.011719 12.75 C 6.382812 12.617188 6.839844 12.46875 7.371094 12.316406 C 7.902344 12.167969 8.507812 12.011719 9.1875 11.882812 C 9.863281 11.753906 10.609375 11.640625 11.429688 11.613281 C 11.523438 11.609375 11.621094 11.605469 11.71875 11.605469 C 11.71875 11.605469 13.722656 11.5 13.117188 9.71875 C 12.605469 8.808594 11.972656 7.84375 11.203125 6.96875 C 11.195312 6.957031 11.1875 6.941406 11.175781 6.929688 C 11.125 6.859375 11.066406 6.792969 11.003906 6.730469 C 10.75 6.472656 10.453125 6.269531 10.453125 6.269531 C 10.453125 6.269531 10.523438 6.328125 10.621094 6.414062 C 10.71875 6.5 10.839844 6.621094 10.949219 6.75 C 10.851562 6.894531 10.386719 6.789062 9.917969 6.515625 C 9.449219 6.246094 9.148438 5.910156 9.25 5.765625 C 9.34375 5.628906 9.769531 5.71875 10.214844 5.964844 C 10.210938 5.960938 10.207031 5.957031 10.203125 5.953125 C 10.203125 5.953125 16.980469 9.132812 15.660156 16.652344 C 15.640625 16.816406 15.613281 16.980469 15.585938 17.148438 C 15.46875 17.996094 15.292969 18.828125 15.070312 19.632812 C 15.015625 19.832031 14.960938 20.03125 14.902344 20.230469 C 14.839844 20.429688 14.777344 20.625 14.714844 20.820312 C 14.582031 21.207031 14.449219 21.585938 14.304688 21.957031 C 14.015625 22.699219 13.699219 23.402344 13.371094 24.058594 C 13.203125 24.386719 13.039062 24.703125 12.867188 25.003906 C 12.695312 25.304688 12.527344 25.589844 12.355469 25.863281 C 12.019531 26.398438 11.683594 26.878906 11.367188 27.289062 C 11.351562 27.320312 11.308594 27.375 11.238281 27.453125 C 11.15625 27.554688 11.078125 27.652344 11 27.746094 C 10.804688 28.023438 10.738281 28.234375 10.71875 28.332031 L 10.707031 28.394531 L 10.621094 28.859375 C 10.714844 29.003906 10.601562 29.183594 10.417969 29.183594 L 9.164062 29.183594 C 8.980469 29.183594 8.867188 29.003906 8.960938 28.859375 L 10.394531 27.867188 C 10.398438 27.863281 10.402344 27.859375 10.40625 27.851562 C 10.539062 27.609375 10.683594 27.339844 10.835938 27.039062 C 11.066406 26.589844 11.308594 26.074219 11.558594 25.511719 C 11.804688 24.945312 12.054688 24.328125 12.300781 23.667969 C 12.546875 23.011719 12.78125 22.308594 13.007812 21.582031 C 13.117188 21.21875 13.230469 20.847656 13.332031 20.46875 C 13.382812 20.28125 13.433594 20.089844 13.480469 19.898438 C 13.53125 19.707031 13.578125 19.515625 13.625 19.324219 C 13.785156 18.621094 13.933594 17.90625 14.035156 17.191406 C 14.042969 17.15625 14.050781 17.117188 14.058594 17.078125 C 14.082031 16.949219 14.097656 16.816406 14.117188 16.6875 C 14.132812 16.554688 14.152344 16.425781 14.164062 16.296875 C 14.175781 16.164062 14.191406 16.035156 14.195312 15.902344 C 14.203125 15.773438 14.214844 15.640625 14.21875 15.511719 C 14.222656 15.378906 14.226562 15.25 14.230469 15.117188 L 14.226562 14.726562 C 14.226562 14.59375 14.21875 14.464844 14.214844 14.335938 C 14.210938 14.269531 14.207031 14.203125 14.203125 14.136719 L 14.1875 13.941406 C 14.175781 13.8125 14.171875 13.683594 14.152344 13.554688 L 14.105469 13.164062 C 14.09375 13.035156 14.066406 12.90625 14.042969 12.777344 L 14.011719 12.585938 C 14 12.523438 13.988281 12.457031 13.972656 12.394531 L 13.890625 12.011719 C 13.863281 11.886719 13.828125 11.761719 13.792969 11.636719 L 13.6875 11.261719 L 13.773438 11.640625 C 13.800781 11.765625 13.832031 11.894531 13.851562 12.023438 L 13.914062 12.40625 C 13.925781 12.46875 13.933594 12.53125 13.941406 12.597656 L 13.964844 12.789062 C 13.976562 12.917969 14 13.046875 14.003906 13.175781 L 14.035156 13.5625 C 14.042969 13.691406 14.042969 13.820312 14.046875 13.949219 L 14.054688 14.144531 C 14.054688 14.207031 14.054688 14.273438 14.054688 14.335938 C 14.050781 14.414062 14.050781 14.488281 14.050781 14.5625 C 13.582031 13.09375 12.011719 12.714844 10.90625 12.640625 C 10.714844 12.636719 10.523438 12.636719 10.335938 12.640625 C 9.984375 12.644531 9.640625 12.660156 9.308594 12.679688 C 8.648438 12.722656 8.039062 12.785156 7.496094 12.84375 C 6.953125 12.902344 6.480469 12.96875 6.089844 13.019531 C 5.710938 13.070312 5.414062 13.109375 5.203125 13.144531 C 5.113281 13.160156 5.011719 13.175781 4.910156 13.183594 C 4.875 13.1875 4.859375 13.191406 4.859375 13.191406 C 4.859375 13.191406 4.863281 13.191406 4.867188 13.1875 C 4.863281 13.1875 4.855469 13.1875 4.851562 13.191406 C 4.296875 13.230469 3.835938 13.128906 3.820312 12.960938 C 3.804688 12.792969 4.242188 12.621094 4.796875 12.578125 " fill-opacity="1" fill-rule="nonzero"/></g><path fill="#ffffff" d="M 11.71875 11.816406 C 11.71875 11.816406 11.648438 11.820312 11.527344 11.828125 C 11.46875 11.832031 11.394531 11.839844 11.3125 11.847656 C 11.226562 11.855469 11.132812 11.863281 11.03125 11.875 C 10.824219 11.894531 10.585938 11.921875 10.332031 11.957031 C 10.203125 11.972656 10.070312 11.996094 9.9375 12.015625 C 9.800781 12.035156 9.667969 12.058594 9.53125 12.082031 C 9.394531 12.105469 9.261719 12.128906 9.128906 12.15625 C 8.992188 12.183594 8.863281 12.207031 8.738281 12.230469 C 8.484375 12.285156 8.246094 12.335938 8.046875 12.378906 C 7.640625 12.46875 7.371094 12.527344 7.371094 12.527344 C 7.371094 12.527344 7.4375 12.503906 7.550781 12.464844 C 7.667969 12.429688 7.832031 12.375 8.03125 12.320312 C 8.230469 12.261719 8.464844 12.199219 8.71875 12.140625 C 8.84375 12.113281 8.972656 12.082031 9.109375 12.054688 C 9.242188 12.027344 9.378906 12.003906 9.511719 11.980469 C 9.785156 11.933594 10.0625 11.890625 10.320312 11.867188 C 10.578125 11.835938 10.820312 11.820312 11.027344 11.8125 C 11.128906 11.808594 11.226562 11.808594 11.308594 11.808594 C 11.394531 11.808594 11.46875 11.808594 11.527344 11.808594 C 11.648438 11.8125 11.71875 11.816406 11.71875 11.816406 " fill-opacity="1" fill-rule="nonzero"/><g clip-path="url(#005a6fa197)"><path fill="#3773c3" d="M 19.835938 28.867188 L 18.707031 28.074219 C 18.59375 27.964844 18.355469 27.617188 18.117188 26.53125 C 18.097656 26.429688 18.074219 26.324219 18.050781 26.21875 C 17.960938 25.808594 17.863281 25.363281 17.761719 24.894531 C 17.660156 24.421875 17.542969 23.925781 17.425781 23.414062 C 17.3125 22.902344 17.195312 22.371094 17.0625 21.835938 C 16.9375 21.300781 16.804688 20.753906 16.675781 20.207031 C 16.546875 19.664062 16.429688 19.113281 16.320312 18.574219 C 16.207031 18.035156 16.089844 17.503906 15.949219 16.996094 C 15.945312 16.980469 15.9375 16.960938 15.933594 16.945312 C 15.921875 17.027344 15.90625 17.105469 15.894531 17.1875 C 15.777344 18.035156 15.601562 18.878906 15.375 19.699219 C 15.339844 19.820312 15.308594 19.941406 15.273438 20.054688 C 15.328125 20.207031 15.382812 20.359375 15.433594 20.507812 C 15.613281 21.042969 15.796875 21.574219 15.976562 22.097656 C 16.152344 22.625 16.339844 23.136719 16.515625 23.636719 C 16.691406 24.132812 16.859375 24.617188 17.023438 25.070312 C 17.1875 25.527344 17.34375 25.957031 17.488281 26.355469 C 17.632812 26.753906 17.769531 27.117188 17.886719 27.441406 C 17.945312 27.605469 17.976562 27.757812 18.007812 27.898438 L 18.171875 28.855469 C 18.082031 29 18.191406 29.179688 18.375 29.179688 L 19.628906 29.1875 C 19.808594 29.1875 19.925781 29.011719 19.835938 28.867188 " fill-opacity="1" fill-rule="nonzero"/></g><path fill="#3773c3" d="M 11.71875 11.089844 C 12.285156 11.089844 12.742188 10.628906 12.742188 10.066406 C 12.742188 9.5 12.285156 9.042969 11.71875 9.042969 C 11.152344 9.042969 10.695312 9.5 10.695312 10.066406 C 10.695312 10.628906 11.152344 11.089844 11.71875 11.089844 " fill-opacity="1" fill-rule="nonzero"/><path fill="#ffffff" d="M 11.140625 9.484375 C 11.140625 9.484375 11.144531 9.480469 11.160156 9.464844 C 11.171875 9.453125 11.1875 9.429688 11.21875 9.40625 C 11.230469 9.394531 11.246094 9.382812 11.261719 9.367188 C 11.28125 9.355469 11.300781 9.34375 11.320312 9.328125 C 11.34375 9.316406 11.367188 9.304688 11.390625 9.292969 C 11.414062 9.277344 11.445312 9.269531 11.472656 9.257812 C 11.503906 9.246094 11.535156 9.238281 11.566406 9.230469 C 11.601562 9.222656 11.632812 9.214844 11.667969 9.214844 C 11.742188 9.207031 11.816406 9.210938 11.894531 9.226562 C 11.972656 9.238281 12.050781 9.265625 12.125 9.304688 C 12.199219 9.34375 12.265625 9.394531 12.332031 9.457031 C 12.382812 9.511719 12.441406 9.585938 12.476562 9.65625 C 12.515625 9.730469 12.542969 9.808594 12.558594 9.886719 C 12.570312 9.964844 12.578125 10.042969 12.570312 10.113281 C 12.566406 10.148438 12.558594 10.183594 12.554688 10.21875 C 12.546875 10.25 12.535156 10.28125 12.527344 10.308594 C 12.515625 10.339844 12.503906 10.367188 12.492188 10.390625 C 12.480469 10.417969 12.46875 10.441406 12.453125 10.460938 C 12.441406 10.484375 12.425781 10.503906 12.414062 10.519531 C 12.402344 10.535156 12.386719 10.550781 12.375 10.566406 C 12.355469 10.59375 12.332031 10.609375 12.320312 10.625 C 12.304688 10.636719 12.296875 10.644531 12.296875 10.644531 C 12.296875 10.644531 12.304688 10.636719 12.316406 10.621094 C 12.324219 10.605469 12.34375 10.585938 12.363281 10.554688 C 12.371094 10.539062 12.382812 10.523438 12.390625 10.507812 C 12.402344 10.488281 12.410156 10.46875 12.421875 10.445312 C 12.433594 10.425781 12.441406 10.398438 12.453125 10.375 C 12.460938 10.351562 12.46875 10.324219 12.476562 10.296875 C 12.488281 10.238281 12.5 10.175781 12.5 10.109375 C 12.503906 10.042969 12.492188 9.972656 12.480469 9.902344 C 12.464844 9.832031 12.433594 9.765625 12.402344 9.699219 C 12.363281 9.632812 12.320312 9.578125 12.261719 9.515625 C 12.210938 9.46875 12.148438 9.417969 12.085938 9.382812 C 12.019531 9.347656 11.949219 9.320312 11.878906 9.304688 C 11.808594 9.289062 11.738281 9.277344 11.671875 9.28125 C 11.605469 9.28125 11.546875 9.292969 11.488281 9.304688 C 11.460938 9.316406 11.433594 9.320312 11.40625 9.332031 C 11.382812 9.339844 11.359375 9.347656 11.335938 9.359375 C 11.316406 9.371094 11.296875 9.382812 11.277344 9.390625 C 11.257812 9.402344 11.242188 9.410156 11.230469 9.421875 C 11.199219 9.4375 11.175781 9.457031 11.164062 9.46875 C 11.148438 9.480469 11.140625 9.484375 11.140625 9.484375 " fill-opacity="1" fill-rule="nonzero"/><path fill="#ffffff" d="M 15.351562 16.785156 C 15.351562 16.785156 15.355469 16.742188 15.367188 16.664062 C 15.375 16.585938 15.390625 16.472656 15.40625 16.328125 C 15.414062 16.257812 15.421875 16.175781 15.429688 16.089844 C 15.433594 16 15.445312 15.90625 15.449219 15.804688 C 15.453125 15.703125 15.460938 15.597656 15.464844 15.484375 C 15.46875 15.371094 15.46875 15.25 15.472656 15.125 C 15.472656 14.875 15.464844 14.605469 15.445312 14.324219 C 15.441406 14.25 15.4375 14.179688 15.429688 14.105469 C 15.421875 14.035156 15.414062 13.960938 15.40625 13.886719 C 15.386719 13.738281 15.367188 13.585938 15.34375 13.433594 C 15.3125 13.28125 15.292969 13.125 15.253906 12.96875 C 15.238281 12.890625 15.21875 12.8125 15.203125 12.734375 C 15.183594 12.65625 15.160156 12.578125 15.140625 12.5 C 15.058594 12.183594 14.957031 11.867188 14.835938 11.5625 C 14.777344 11.40625 14.710938 11.253906 14.644531 11.101562 C 14.578125 10.953125 14.507812 10.804688 14.433594 10.660156 C 14.394531 10.585938 14.359375 10.515625 14.320312 10.445312 C 14.28125 10.375 14.242188 10.304688 14.203125 10.234375 C 14.164062 10.164062 14.121094 10.097656 14.082031 10.03125 C 14.042969 9.960938 14 9.898438 13.957031 9.832031 C 13.789062 9.570312 13.617188 9.324219 13.441406 9.097656 C 13.269531 8.871094 13.097656 8.664062 12.933594 8.476562 C 12.769531 8.289062 12.609375 8.125 12.46875 7.980469 C 12.398438 7.90625 12.328125 7.839844 12.265625 7.777344 C 12.203125 7.71875 12.144531 7.664062 12.089844 7.613281 C 11.984375 7.515625 11.898438 7.4375 11.839844 7.386719 C 11.78125 7.332031 11.75 7.304688 11.75 7.304688 C 11.75 7.304688 11.785156 7.332031 11.847656 7.378906 C 11.910156 7.425781 12 7.496094 12.113281 7.589844 C 12.167969 7.636719 12.230469 7.691406 12.296875 7.746094 C 12.363281 7.804688 12.433594 7.867188 12.507812 7.9375 C 12.660156 8.074219 12.828125 8.234375 13 8.414062 C 13.085938 8.503906 13.171875 8.605469 13.265625 8.703125 C 13.351562 8.804688 13.445312 8.910156 13.535156 9.023438 C 13.71875 9.246094 13.898438 9.492188 14.074219 9.753906 C 14.25 10.015625 14.417969 10.296875 14.566406 10.589844 C 14.644531 10.738281 14.714844 10.886719 14.789062 11.039062 C 14.820312 11.117188 14.855469 11.195312 14.886719 11.269531 C 14.921875 11.347656 14.953125 11.425781 14.980469 11.503906 C 15.105469 11.816406 15.203125 12.140625 15.289062 12.460938 C 15.308594 12.539062 15.328125 12.621094 15.347656 12.699219 C 15.363281 12.78125 15.382812 12.859375 15.398438 12.941406 C 15.433594 13.097656 15.453125 13.257812 15.480469 13.414062 C 15.492188 13.488281 15.5 13.566406 15.507812 13.644531 C 15.519531 13.722656 15.527344 13.796875 15.535156 13.871094 C 15.539062 13.949219 15.546875 14.023438 15.550781 14.097656 C 15.554688 14.171875 15.5625 14.242188 15.5625 14.316406 C 15.574219 14.605469 15.574219 14.875 15.5625 15.128906 C 15.554688 15.253906 15.550781 15.375 15.542969 15.488281 C 15.53125 15.601562 15.519531 15.710938 15.507812 15.8125 C 15.5 15.914062 15.480469 16.007812 15.472656 16.09375 C 15.457031 16.179688 15.445312 16.261719 15.4375 16.332031 C 15.410156 16.476562 15.386719 16.589844 15.375 16.667969 C 15.359375 16.742188 15.351562 16.785156 15.351562 16.785156 " fill-opacity="1" fill-rule="nonzero"/><path fill="#ffffff" d="M 15.960938 18.023438 C 15.960938 18.023438 15.96875 18.054688 15.984375 18.113281 C 16 18.167969 16.023438 18.253906 16.050781 18.359375 C 16.105469 18.574219 16.1875 18.882812 16.28125 19.25 C 16.324219 19.433594 16.375 19.632812 16.425781 19.847656 C 16.476562 20.058594 16.53125 20.28125 16.585938 20.511719 C 16.640625 20.742188 16.699219 20.980469 16.753906 21.222656 C 16.808594 21.46875 16.863281 21.714844 16.921875 21.960938 C 16.976562 22.207031 17.03125 22.457031 17.082031 22.699219 C 17.136719 22.941406 17.1875 23.183594 17.234375 23.414062 C 17.335938 23.878906 17.421875 24.316406 17.496094 24.6875 C 17.570312 25.0625 17.625 25.371094 17.667969 25.589844 C 17.6875 25.699219 17.699219 25.785156 17.710938 25.84375 C 17.722656 25.902344 17.726562 25.933594 17.726562 25.933594 C 17.726562 25.933594 17.71875 25.902344 17.703125 25.847656 C 17.6875 25.789062 17.664062 25.703125 17.636719 25.597656 C 17.582031 25.382812 17.5 25.078125 17.40625 24.707031 C 17.3125 24.339844 17.210938 23.910156 17.101562 23.445312 C 17.046875 23.214844 16.988281 22.976562 16.933594 22.734375 C 16.878906 22.488281 16.824219 22.242188 16.765625 21.996094 C 16.710938 21.75 16.660156 21.5 16.605469 21.257812 C 16.550781 21.015625 16.5 20.773438 16.453125 20.542969 C 16.402344 20.308594 16.355469 20.085938 16.3125 19.871094 C 16.269531 19.65625 16.230469 19.457031 16.191406 19.269531 C 16.117188 18.898438 16.0625 18.585938 16.019531 18.367188 C 16 18.257812 15.988281 18.171875 15.976562 18.113281 C 15.964844 18.054688 15.960938 18.023438 15.960938 18.023438 " fill-opacity="1" fill-rule="nonzero"/><g fill="#ffffff" fill-opacity="1"><g transform="translate(29.584875, 23.235834)"><g><path d="M 6.1875 -3.65625 L 2.640625 -3.65625 L 2.640625 0 L 0.796875 0 L 0.796875 -8.96875 L 6.640625 -8.96875 L 6.640625 -7.46875 L 2.640625 -7.46875 L 2.640625 -5.15625 L 6.1875 -5.15625 Z M 6.1875 -3.65625 "/></g></g></g><g fill="#ffffff" fill-opacity="1"><g transform="translate(36.484526, 23.235834)"><g><path d="M 2.5625 0 L 0.78125 0 L 0.78125 -6.65625 L 2.5625 -6.65625 Z M 0.671875 -8.390625 C 0.671875 -8.648438 0.757812 -8.863281 0.9375 -9.03125 C 1.113281 -9.207031 1.359375 -9.296875 1.671875 -9.296875 C 1.972656 -9.296875 2.210938 -9.207031 2.390625 -9.03125 C 2.578125 -8.863281 2.671875 -8.648438 2.671875 -8.390625 C 2.671875 -8.117188 2.578125 -7.894531 2.390625 -7.71875 C 2.210938 -7.550781 1.972656 -7.46875 1.671875 -7.46875 C 1.367188 -7.46875 1.125 -7.550781 0.9375 -7.71875 C 0.757812 -7.894531 0.671875 -8.117188 0.671875 -8.390625 Z M 0.671875 -8.390625 "/></g></g></g><g fill="#ffffff" fill-opacity="1"><g transform="translate(39.823661, 23.235834)"><g><path d="M 2.8125 -8.296875 L 2.8125 -6.65625 L 3.953125 -6.65625 L 3.953125 -5.359375 L 2.8125 -5.359375 L 2.8125 -2.03125 C 2.8125 -1.78125 2.859375 -1.601562 2.953125 -1.5 C 3.046875 -1.394531 3.226562 -1.34375 3.5 -1.34375 C 3.695312 -1.34375 3.867188 -1.359375 4.015625 -1.390625 L 4.015625 -0.03125 C 3.671875 0.0703125 3.3125 0.125 2.9375 0.125 C 1.695312 0.125 1.0625 -0.503906 1.03125 -1.765625 L 1.03125 -5.359375 L 0.0625 -5.359375 L 0.0625 -6.65625 L 1.03125 -6.65625 L 1.03125 -8.296875 Z M 2.8125 -8.296875 "/></g></g></g><g fill="#ffffff" fill-opacity="1"><g transform="translate(44.079061, 23.235834)"><g><path d="M 2.328125 -6.65625 L 2.375 -5.890625 C 2.851562 -6.484375 3.492188 -6.78125 4.296875 -6.78125 C 4.992188 -6.78125 5.515625 -6.570312 5.859375 -6.15625 C 6.210938 -5.75 6.390625 -5.128906 6.390625 -4.296875 L 6.390625 0 L 4.625 0 L 4.625 -4.265625 C 4.625 -4.640625 4.539062 -4.910156 4.375 -5.078125 C 4.207031 -5.253906 3.929688 -5.34375 3.546875 -5.34375 C 3.046875 -5.34375 2.671875 -5.128906 2.421875 -4.703125 L 2.421875 0 L 0.640625 0 L 0.640625 -6.65625 Z M 2.328125 -6.65625 "/></g></g></g><g fill="#ffffff" fill-opacity="1"><g transform="translate(51.132447, 23.235834)"><g><path d="M 3.75 0.125 C 2.769531 0.125 1.972656 -0.171875 1.359375 -0.765625 C 0.742188 -1.367188 0.4375 -2.171875 0.4375 -3.171875 L 0.4375 -3.34375 C 0.4375 -4.007812 0.566406 -4.601562 0.828125 -5.125 C 1.085938 -5.65625 1.453125 -6.0625 1.921875 -6.34375 C 2.398438 -6.632812 2.941406 -6.78125 3.546875 -6.78125 C 4.460938 -6.78125 5.179688 -6.492188 5.703125 -5.921875 C 6.222656 -5.347656 6.484375 -4.535156 6.484375 -3.484375 L 6.484375 -2.75 L 2.25 -2.75 C 2.300781 -2.3125 2.472656 -1.960938 2.765625 -1.703125 C 3.054688 -1.441406 3.421875 -1.3125 3.859375 -1.3125 C 4.546875 -1.3125 5.082031 -1.5625 5.46875 -2.0625 L 6.34375 -1.078125 C 6.082031 -0.703125 5.722656 -0.40625 5.265625 -0.1875 C 4.804688 0.0195312 4.300781 0.125 3.75 0.125 Z M 3.546875 -5.34375 C 3.191406 -5.34375 2.90625 -5.222656 2.6875 -4.984375 C 2.46875 -4.742188 2.328125 -4.40625 2.265625 -3.96875 L 4.734375 -3.96875 L 4.734375 -4.109375 C 4.734375 -4.503906 4.628906 -4.804688 4.421875 -5.015625 C 4.210938 -5.234375 3.921875 -5.34375 3.546875 -5.34375 Z M 3.546875 -5.34375 "/></g></g></g><g fill="#ffffff" fill-opacity="1"><g transform="translate(57.939856, 23.235834)"><g><path d="M 6.6875 -3.265625 C 6.6875 -2.242188 6.453125 -1.421875 5.984375 -0.796875 C 5.515625 -0.179688 4.882812 0.125 4.09375 0.125 C 3.414062 0.125 2.875 -0.109375 2.46875 -0.578125 L 2.46875 2.5625 L 0.6875 2.5625 L 0.6875 -6.65625 L 2.328125 -6.65625 L 2.390625 -6.015625 C 2.828125 -6.523438 3.390625 -6.78125 4.078125 -6.78125 C 4.898438 -6.78125 5.539062 -6.476562 6 -5.875 C 6.457031 -5.269531 6.6875 -4.429688 6.6875 -3.359375 Z M 4.90625 -3.40625 C 4.90625 -4.019531 4.789062 -4.492188 4.5625 -4.828125 C 4.34375 -5.171875 4.023438 -5.34375 3.609375 -5.34375 C 3.054688 -5.34375 2.675781 -5.128906 2.46875 -4.703125 L 2.46875 -1.96875 C 2.6875 -1.53125 3.070312 -1.3125 3.625 -1.3125 C 4.476562 -1.3125 4.90625 -2.007812 4.90625 -3.40625 Z M 4.90625 -3.40625 "/></g></g></g><g fill="#ffffff" fill-opacity="1"><g transform="translate(65.030139, 23.235834)"><g><path d="M 4.546875 0 C 4.460938 -0.15625 4.398438 -0.351562 4.359375 -0.59375 C 3.929688 -0.113281 3.375 0.125 2.6875 0.125 C 2.03125 0.125 1.488281 -0.0625 1.0625 -0.4375 C 0.632812 -0.820312 0.421875 -1.300781 0.421875 -1.875 C 0.421875 -2.582031 0.679688 -3.125 1.203125 -3.5 C 1.722656 -3.875 2.476562 -4.0625 3.46875 -4.0625 L 4.296875 -4.0625 L 4.296875 -4.453125 C 4.296875 -4.753906 4.210938 -5 4.046875 -5.1875 C 3.890625 -5.375 3.644531 -5.46875 3.3125 -5.46875 C 3.007812 -5.46875 2.769531 -5.394531 2.59375 -5.25 C 2.425781 -5.101562 2.34375 -4.90625 2.34375 -4.65625 L 0.5625 -4.65625 C 0.5625 -5.039062 0.679688 -5.394531 0.921875 -5.71875 C 1.160156 -6.050781 1.492188 -6.3125 1.921875 -6.5 C 2.359375 -6.6875 2.851562 -6.78125 3.40625 -6.78125 C 4.21875 -6.78125 4.863281 -6.570312 5.34375 -6.15625 C 5.832031 -5.75 6.078125 -5.171875 6.078125 -4.421875 L 6.078125 -1.546875 C 6.078125 -0.910156 6.164062 -0.429688 6.34375 -0.109375 L 6.34375 0 Z M 3.078125 -1.234375 C 3.335938 -1.234375 3.578125 -1.289062 3.796875 -1.40625 C 4.015625 -1.53125 4.179688 -1.691406 4.296875 -1.890625 L 4.296875 -3.03125 L 3.625 -3.03125 C 2.738281 -3.03125 2.265625 -2.722656 2.203125 -2.109375 L 2.203125 -2 C 2.203125 -1.78125 2.28125 -1.597656 2.4375 -1.453125 C 2.59375 -1.304688 2.804688 -1.234375 3.078125 -1.234375 Z M 3.078125 -1.234375 "/></g></g></g><g fill="#ffffff" fill-opacity="1"><g transform="translate(71.782203, 23.235834)"><g><path d="M 2.5625 0 L 0.78125 0 L 0.78125 -9.453125 L 2.5625 -9.453125 Z M 2.5625 0 "/></g></g></g></svg>